<?xml version="1.0" standalone="no"?>
<!DOCTYPE svg PUBLIC "-//W3C//DTD SVG 20010904//EN"
 "http://www.w3.org/TR/2001/REC-SVG-20010904/DTD/svg10.dtd">
<svg version="1.0" xmlns="http://www.w3.org/2000/svg"
 width="200.000000pt" height="200.000000pt" viewBox="0 0 200.000000 200.000000"
 preserveAspectRatio="xMidYMid meet">

<g transform="translate(0.000000,200.000000) scale(0.100000,-0.100000)"
fill="#000000" stroke="none">
<path d="M0 1000 l0 -1000 1000 0 1000 0 0 1000 0 1000 -1000 0 -1000 0 0
-1000z m1138 425 c86 -20 136 -48 204 -113 180 -171 180 -453 0 -624 -32 -31
-77 -65 -100 -77 -57 -29 -155 -51 -229 -51 l-63 0 0 90 0 90 -85 0 -85 0 0
-90 0 -90 -90 0 -90 0 0 90 0 90 90 0 90 0 0 85 0 85 -90 0 -90 0 0 265 0 265
238 0 c174 0 254 -4 300 -15z"/>
<path d="M780 1085 l0 -175 85 0 85 0 0 -85 0 -85 73 0 c119 1 205 53 253 155
61 128 0 283 -136 344 -39 18 -66 21 -202 21 l-158 0 0 -175z"/>
</g>
</svg>
